<svg data-v-fde0c5aa="" xmlns="http://www.w3.org/2000/svg" viewBox="0 0 300 300" class="iconLeft"><!----><defs data-v-fde0c5aa=""><!----></defs><rect data-v-fde0c5aa="" fill="#FFFFFF" x="0" y="0" width="300px" height="300px" class="logo-background-square"></rect><defs data-v-fde0c5aa=""><!----></defs><g data-v-fde0c5aa="" id="af6e8606-df7f-4e20-a78f-10e788a0aa27" fill="#D46410" transform="matrix(3.1839273283943927,0,0,3.1839273283943927,120.06638807193919,120.66011070123177)"><path d="M4.58 4.06L3.28 4.21L3.28 4.21Q3.25 5.10 3.25 6.00L3.25 6.00L3.25 6.00Q3.25 6.90 3.25 7.83L3.25 7.83L3.25 8.51L3.25 8.51Q3.25 9.42 3.25 10.32L3.25 10.32L3.25 10.32Q3.25 11.21 3.28 12.12L3.28 12.12L4.58 12.28L4.58 12.85L0.62 12.85L0.62 12.28L1.90 12.12L1.90 12.12Q1.93 11.24 1.93 10.34L1.93 10.34L1.93 10.34Q1.93 9.44 1.93 8.51L1.93 8.51L1.93 7.83L1.93 7.83Q1.93 6.92 1.93 6.02L1.93 6.02L1.93 6.02Q1.93 5.12 1.90 4.21L1.90 4.21L0.62 4.06L0.62 3.49L4.58 3.49L4.58 4.06ZM12.28 12.15L13.26 12.35L13.26 12.85L10.01 12.85L10.01 12.35L11.05 12.15L11.05 12.15Q11.06 11.63 11.07 11.02L11.07 11.02L11.07 11.02Q11.07 10.40 11.07 9.91L11.07 9.91L11.07 8.68L11.07 8.68Q11.07 7.73 10.81 7.35L10.81 7.35L10.81 7.35Q10.54 6.97 9.93 6.97L9.93 6.97L9.93 6.97Q9.44 6.97 8.98 7.18L8.98 7.18L8.98 7.18Q8.53 7.39 7.99 7.85L7.99 7.85L7.99 9.91L7.99 9.91Q7.99 10.37 8.00 11.00L8.00 11.00L8.00 11.00Q8.01 11.62 8.02 12.15L8.02 12.15L9.00 12.35L9.00 12.85L5.75 12.85L5.75 12.35L6.79 12.15L6.79 12.15Q6.80 11.62 6.81 11.00L6.81 11.00L6.81 11.00Q6.82 10.39 6.82 9.91L6.82 9.91L6.82 9.20L6.82 9.20Q6.82 8.62 6.80 8.25L6.80 8.25L6.80 8.25Q6.79 7.87 6.78 7.45L6.78 7.45L5.67 7.32L5.67 6.83L7.62 5.98L7.83 6.12L7.94 7.25L7.94 7.25Q8.46 6.68 9.12 6.33L9.12 6.33L9.12 6.33Q9.79 5.98 10.46 5.98L10.46 5.98L10.46 5.98Q11.37 5.98 11.81 6.58L11.81 6.58L11.81 6.58Q12.25 7.18 12.25 8.57L12.25 8.57L12.25 9.91L12.25 9.91Q12.25 10.40 12.26 11.01L12.26 11.01L12.26 11.01Q12.26 11.62 12.28 12.15L12.28 12.15ZM16.87 8.82L17.29 8.97L17.29 8.97Q18.35 9.37 18.78 9.88L18.78 9.88L18.78 9.88Q19.21 10.39 19.21 11.05L19.21 11.05L19.21 11.05Q19.21 11.44 19.04 11.80L19.04 11.80L19.04 11.80Q18.87 12.17 18.53 12.45L18.53 12.45L18.53 12.45Q18.19 12.73 17.67 12.89L17.67 12.89L17.67 12.89Q17.16 13.06 16.49 13.06L16.49 13.06L16.49 13.06Q15.89 13.06 15.41 12.93L15.41 12.93L15.41 12.93Q14.92 12.80 14.39 12.52L14.39 12.52L14.35 10.99L15.12 10.99L15.39 12.19L15.39 12.19Q15.88 12.42 16.52 12.42L16.52 12.42L16.52 12.42Q17.32 12.42 17.71 12.12L17.71 12.12L17.71 12.12Q18.10 11.83 18.10 11.34L18.10 11.34L18.10 11.34Q18.10 10.89 17.77 10.63L17.77 10.63L17.77 10.63Q17.44 10.36 16.77 10.11L16.77 10.11L16.13 9.87L16.13 9.87Q15.36 9.59 14.90 9.13L14.90 9.13L14.90 9.13Q14.43 8.68 14.43 8.01L14.43 8.01L14.43 8.01Q14.43 7.60 14.61 7.24L14.61 7.24L14.61 7.24Q14.78 6.87 15.10 6.59L15.10 6.59L15.10 6.59Q15.41 6.31 15.87 6.15L15.87 6.15L15.87 6.15Q16.32 5.98 16.88 5.98L16.88 5.98L16.88 5.98Q17.46 5.98 17.92 6.13L17.92 6.13L17.92 6.13Q18.38 6.27 18.84 6.55L18.84 6.55L18.79 7.98L18.06 7.98L17.85 6.86L17.85 6.86Q17.35 6.62 16.87 6.62L16.87 6.62L16.87 6.62Q16.23 6.62 15.90 6.90L15.90 6.90L15.90 6.90Q15.57 7.17 15.57 7.64L15.57 7.64L15.57 7.64Q15.57 8.06 15.85 8.31L15.85 8.31L15.85 8.31Q16.14 8.55 16.87 8.82L16.87 8.82ZM21.91 4.48L21.91 4.48L21.91 4.48Q21.50 4.48 21.24 4.23L21.24 4.23L21.24 4.23Q20.97 3.98 20.97 3.57L20.97 3.57L20.97 3.57Q20.97 3.16 21.24 2.92L21.24 2.92L21.24 2.92Q21.50 2.67 21.91 2.67L21.91 2.67L21.91 2.67Q22.32 2.67 22.58 2.92L22.58 2.92L22.58 2.92Q22.85 3.16 22.85 3.57L22.85 3.57L22.85 3.57Q22.85 3.98 22.58 4.23L22.58 4.23L22.58 4.23Q22.32 4.48 21.91 4.48ZM22.54 12.15L23.51 12.35L23.51 12.85L20.26 12.85L20.26 12.35L21.31 12.15L21.31 12.15Q21.32 11.62 21.33 11.00L21.33 11.00L21.33 11.00Q21.34 10.37 21.34 9.91L21.34 9.91L21.34 9.21L21.34 9.21Q21.34 8.64 21.32 8.25L21.32 8.25L21.32 8.25Q21.31 7.87 21.29 7.45L21.29 7.45L20.19 7.32L20.19 6.83L22.34 5.98L22.55 6.12L22.51 8.02L22.51 9.91L22.51 9.91Q22.51 10.37 22.52 11.00L22.52 11.00L22.52 11.00Q22.53 11.62 22.54 12.15L22.54 12.15ZM27.26 10.01L27.26 10.01L27.26 10.01Q27.93 10.01 28.31 9.52L28.31 9.52L28.31 9.52Q28.69 9.03 28.69 8.25L28.69 8.25L28.69 8.25Q28.69 7.49 28.34 7.02L28.34 7.02L28.34 7.02Q27.99 6.55 27.33 6.55L27.33 6.55L27.33 6.55Q26.66 6.55 26.29 7.04L26.29 7.04L26.29 7.04Q25.91 7.52 25.91 8.29L25.91 8.29L25.91 8.29Q25.91 9.06 26.26 9.53L26.26 9.53L26.26 9.53Q26.61 10.01 27.26 10.01ZM28.36 12.87L26.81 12.87L26.81 12.87Q26.45 12.87 26.10 12.80L26.10 12.80L26.10 12.80Q25.86 13.08 25.72 13.34L25.72 13.34L25.72 13.34Q25.58 13.61 25.58 13.94L25.58 13.94L25.58 13.94Q25.58 14.57 26.08 14.86L26.08 14.86L26.08 14.86Q26.59 15.15 27.40 15.15L27.40 15.15L27.40 15.15Q28.56 15.15 29.16 14.74L29.16 14.74L29.16 14.74Q29.75 14.34 29.75 13.76L29.75 13.76L29.75 13.76Q29.75 13.59 29.69 13.43L29.69 13.43L29.69 13.43Q29.62 13.27 29.46 13.15L29.46 13.15L29.46 13.15Q29.30 13.02 29.04 12.94L29.04 12.94L29.04 12.94Q28.77 12.87 28.36 12.87L28.36 12.87ZM30.88 6.16L30.88 7.04L29.53 7.04L29.53 7.04Q29.83 7.57 29.83 8.27L29.83 8.27L29.83 8.27Q29.83 8.82 29.64 9.25L29.64 9.25L29.64 9.25Q29.44 9.67 29.11 9.97L29.11 9.97L29.11 9.97Q28.77 10.26 28.31 10.42L28.31 10.42L28.31 10.42Q27.85 10.57 27.30 10.57L27.30 10.57L27.30 10.57Q27.02 10.57 26.77 10.54L26.77 10.54L26.77 10.54Q26.52 10.50 26.28 10.43L26.28 10.43L26.28 10.43Q26.17 10.58 26.09 10.76L26.09 10.76L26.09 10.76Q26.01 10.93 26.01 11.13L26.01 11.13L26.01 11.13Q26.01 11.45 26.25 11.63L26.25 11.63L26.25 11.63Q26.49 11.82 27.10 11.82L27.10 11.82L28.56 11.82L28.56 11.82Q29.71 11.82 30.26 12.22L30.26 12.22L30.26 12.22Q30.81 12.63 30.81 13.37L30.81 13.37L30.81 13.37Q30.81 13.83 30.60 14.27L30.60 14.27L30.60 14.27Q30.38 14.70 29.94 15.04L29.94 15.04L29.94 15.04Q29.50 15.37 28.85 15.57L28.85 15.57L28.85 15.57Q28.20 15.78 27.31 15.78L27.31 15.78L27.31 15.78Q26.57 15.78 26.03 15.65L26.03 15.65L26.03 15.65Q25.48 15.53 25.12 15.31L25.12 15.31L25.12 15.31Q24.77 15.09 24.59 14.80L24.59 14.80L24.59 14.80Q24.42 14.50 24.42 14.18L24.42 14.18L24.42 14.18Q24.42 13.31 25.72 12.66L25.72 12.66L25.72 12.66Q25.31 12.47 25.14 12.19L25.14 12.19L25.14 12.19Q24.96 11.90 24.96 11.58L24.96 11.58L24.96 11.58Q24.96 11.20 25.19 10.88L25.19 10.88L25.19 10.88Q25.42 10.56 25.86 10.25L25.86 10.25L25.86 10.25Q25.37 9.97 25.07 9.48L25.07 9.48L25.07 9.48Q24.78 8.99 24.78 8.27L24.78 8.27L24.78 8.27Q24.78 7.73 24.98 7.30L24.98 7.30L24.98 7.30Q25.17 6.87 25.51 6.58L25.51 6.58L25.51 6.58Q25.84 6.29 26.31 6.13L26.31 6.13L26.31 6.13Q26.77 5.98 27.31 5.98L27.31 5.98L27.31 5.98Q28.42 5.98 29.11 6.55L29.11 6.55L30.67 6.02L30.88 6.16ZM38.08 12.15L39.06 12.35L39.06 12.85L35.81 12.85L35.81 12.35L36.85 12.15L36.85 12.15Q36.86 11.63 36.87 11.02L36.87 11.02L36.87 11.02Q36.88 10.40 36.88 9.91L36.88 9.91L36.88 8.68L36.88 8.68Q36.88 7.73 36.61 7.35L36.61 7.35L36.61 7.35Q36.34 6.97 35.73 6.97L35.73 6.97L35.73 6.97Q35.22 6.97 34.76 7.19L34.76 7.19L34.76 7.19Q34.30 7.41 33.74 7.90L33.74 7.90L33.74 9.91L33.74 9.91Q33.74 10.37 33.75 11.00L33.75 11.00L33.75 11.00Q33.75 11.62 33.77 12.15L33.77 12.15L34.73 12.35L34.73 12.85L31.49 12.85L31.49 12.35L32.54 12.15L32.54 12.15Q32.55 11.62 32.56 11.00L32.56 11.00L32.56 11.00Q32.56 10.37 32.56 9.91L32.56 9.91L32.56 3.91L31.42 3.77L31.42 3.28L33.56 2.65L33.75 2.76L33.70 4.75L33.70 7.28L33.70 7.28Q34.22 6.69 34.90 6.33L34.90 6.33L34.90 6.33Q35.59 5.98 36.26 5.98L36.26 5.98L36.26 5.98Q37.17 5.98 37.61 6.58L37.61 6.58L37.61 6.58Q38.05 7.18 38.05 8.57L38.05 8.57L38.05 9.91L38.05 9.91Q38.05 10.40 38.06 11.01L38.06 11.01L38.06 11.01Q38.07 11.62 38.08 12.15L38.08 12.15ZM43.61 11.87L43.95 12.25L43.95 12.25Q43.68 12.60 43.25 12.80L43.25 12.80L43.25 12.80Q42.83 12.99 42.29 12.99L42.29 12.99L42.29 12.99Q41.55 12.99 41.13 12.61L41.13 12.61L41.13 12.61Q40.70 12.22 40.70 11.40L40.70 11.40L40.70 11.40Q40.70 11.13 40.70 10.87L40.70 10.87L40.70 10.87Q40.71 10.61 40.71 10.21L40.71 10.21L40.71 6.97L39.55 6.97L39.55 6.36L40.80 6.20L41.15 4.30L42 4.30L41.93 6.23L43.81 6.23L43.81 6.97L41.90 6.97L41.90 11.23L41.90 11.23Q41.90 11.77 42.10 12.02L42.10 12.02L42.10 12.02Q42.31 12.26 42.67 12.26L42.67 12.26L42.67 12.26Q43.09 12.26 43.61 11.87L43.61 11.87Z"></path></g><defs data-v-fde0c5aa=""><linearGradient data-v-fde0c5aa="" gradientTransform="rotate(25)" id="ee5c22d9-0d7f-444f-a599-47300d33c406" x1="0%" y1="0%" x2="100%" y2="0%"><stop data-v-fde0c5aa="" offset="0%" stop-color="#000000" stop-opacity="1"></stop><stop data-v-fde0c5aa="" offset="100%" stop-color="#000000" stop-opacity="1"></stop></linearGradient></defs><g data-v-fde0c5aa="" id="454e412c-5937-4ebf-83e7-415d0d5ae537" stroke="none" fill="url(#ee5c22d9-0d7f-444f-a599-47300d33c406)" transform="matrix(0.8039415990338504,0,0,0.8039415990338504,34.37240880676305,109.80292004830747)"><path style="text-indent:0;text-align:start;line-height:normal;text-transform:none;block-progression:tb;marker:none;-inkscape-font-specification:Sans" d="M46 11C24.485 11 7 28.485 7 50s17.485 39 39 39h45a2.004 2.004 0 0 0 0-4H63.125C76.07 78.65 85 65.372 85 50c0-21.515-17.485-39-39-39zm0 4c19.354 0 35 15.646 35 35 0 19.037-15.153 34.498-34.063 35H46c-19.354 0-35-15.646-35-35s15.646-35 35-35zm0 3c-6.051 0-11 4.949-11 11s4.949 11 11 11 11-4.949 11-11-4.949-11-11-11zm0 4c3.89 0 7 3.11 7 7s-3.11 7-7 7-7-3.11-7-7 3.11-7 7-7zM25 39c-6.051 0-11 4.949-11 11s4.949 11 11 11 11-4.949 11-11-4.949-11-11-11zm42 0c-6.051 0-11 4.949-11 11s4.949 11 11 11 11-4.949 11-11-4.949-11-11-11zm-42 4c3.89 0 7 3.11 7 7s-3.11 7-7 7-7-3.11-7-7 3.11-7 7-7zm42 0c3.89 0 7 3.11 7 7s-3.11 7-7 7-7-3.11-7-7 3.11-7 7-7zM46 60c-6.051 0-11 4.948-11 11 0 6.051 4.949 11 11 11s11-4.949 11-11c0-6.052-4.949-11-11-11zm0 4c3.89 0 7 3.11 7 7s-3.11 7-7 7-7-3.11-7-7 3.11-7 7-7z" font-weight="400" color="#000" overflow="visible" font-family="Sans"></path></g><!----></svg>